<?xml version="1.0" encoding="UTF-8" standalone="no"?><!DOCTYPE svg PUBLIC "-//W3C//DTD SVG 1.1//EN" "http://www.w3.org/Graphics/SVG/1.1/DTD/svg11.dtd"><svg width="100%" height="100%" viewBox="0 0 1250 1250" version="1.1" xmlns="http://www.w3.org/2000/svg" xmlns:xlink="http://www.w3.org/1999/xlink" xml:space="preserve" xmlns:serif="http://www.serif.com/" style="fill-rule:evenodd;clip-rule:evenodd;stroke-linejoin:round;stroke-miterlimit:2;"><g id="_1-2"><g><clipPath id="_clip1"><path d="M625,1247.33c342.285,0 622.333,-280.986 622.333,-624.416c0,-343.431 -280.048,-624.417 -622.333,-624.417c-342.285,-0 -622.333,280.986 -622.333,624.417c-0.029,343.43 280.048,624.416 622.333,624.416Z"/></clipPath><g clip-path="url(#_clip1)"><path d="M290.827,408.082l660.119,0l0,917.474c0,8.051 -6.603,14.677 -14.628,14.677l-630.856,-0c-8.025,-0 -14.628,-6.626 -14.628,-14.677l-0,-917.474l-0.007,0Z" style="fill:#2b2b2b;fill-rule:nonzero;"/><rect x="507.167" y="887.177" width="227.194" height="444.794" style="fill:#f09d7e;"/><rect x="141.175" y="1114.03" width="933.507" height="395.463" style="fill:#95a7f0;"/></g></g><ellipse cx="324.586" cy="641.562" rx="95.902" ry="96.223" style="fill:#e39a7f;"/><ellipse cx="916.523" cy="641.562" rx="95.902" ry="96.223" style="fill:#e39a7f;"/><path d="M938.036,549.3l-0,195.088c-2.165,177.87 -314.992,316.046 -314.992,316.046c0,0 -314.991,-141.478 -314.991,-316.046l-0,-195.088c-0,-123.007 70.059,-229.533 172.21,-281.667c44.223,-22.554 93.137,-34.311 142.745,-34.311c172.78,0 314.971,142.62 315.028,315.978Z" style="fill:#fcb49a;fill-rule:nonzero;"/><path d="M950.824,473.126l-0,-45.711c-0,-0.005 -0,-0.01 -0,-0.015c-0,-181.679 -149.001,-331.179 -330.075,-331.179c-52.005,0 -103.282,12.332 -149.636,35.987c-107.045,54.69 -180.467,166.3 -180.467,295.207l0,45.711c0,0 37.231,-142.723 330.089,-142.723c302.059,0 330.089,142.723 330.089,142.723Z" style="fill:#2b2b2b;fill-rule:nonzero;"/><path d="M535.564,618.92c-0.019,20.723 -17.009,37.77 -37.663,37.789c-5.411,0.029 -10.759,-1.166 -15.646,-3.497c-9.315,-4.337 -16.454,-12.333 -19.73,-22.099c-1.408,-3.949 -2.116,-8.115 -2.093,-12.309c-0,-0.019 -0,-0.039 -0,-0.058c-0,-20.684 16.948,-37.711 37.563,-37.739c4.854,-0.006 9.663,0.946 14.151,2.802c11.309,4.573 19.719,14.393 22.523,26.299c0.596,2.899 0.896,5.852 0.895,8.812Z" style="fill-rule:nonzero;"/><path d="M487.069,590.681c-0,-0 -28.145,6.676 -33.666,-16.741c-0,-0 -6.668,23.46 13.914,29.919c25.886,8.139 19.752,-13.178 19.752,-13.178Z" style="fill-rule:nonzero;"/><path d="M479.109,602.592c-0,-0 -28.145,6.669 -33.666,-16.748c0,-0 -6.675,23.467 13.906,29.919c25.887,8.124 19.76,-13.171 19.76,-13.171Z" style="fill-rule:nonzero;"/><path d="M702.232,618.92c0.02,20.726 17.014,37.774 37.671,37.789c5.408,0.028 10.754,-1.167 15.639,-3.497c9.316,-4.335 16.456,-12.332 19.73,-22.099c1.408,-3.949 2.116,-8.115 2.093,-12.309c0.031,-20.692 -16.904,-37.749 -37.527,-37.797c-4.854,-0.006 -9.663,0.946 -14.152,2.802c-11.306,4.576 -19.715,14.395 -22.523,26.299c-0.604,2.898 -0.916,5.851 -0.931,8.812Z" style="fill-rule:nonzero;"/><path d="M750.728,590.681c0,-0 28.145,6.676 33.666,-16.741c-0,-0 6.668,23.46 -13.914,29.919c-25.886,8.139 -19.752,-13.178 -19.752,-13.178Z" style="fill-rule:nonzero;"/><path d="M758.688,602.592c0,-0 28.145,6.669 33.673,-16.748c-0,-0 6.668,23.467 -13.914,29.919c-25.886,8.124 -19.759,-13.171 -19.759,-13.171Z" style="fill-rule:nonzero;"/><path d="M542.47,479.535c-0.666,-2.559 -3.284,-4.093 -5.842,-3.422l-124.232,32.561c-2.558,0.671 -4.094,3.293 -3.428,5.852l2.925,11.232c0.666,2.559 3.284,4.092 5.842,3.422l124.232,-32.561c2.558,-0.671 4.094,-3.293 3.428,-5.852l-2.925,-11.232Z" style="fill:#9c3b13;"/><path d="M694.086,486.936c-0.805,2.519 0.586,5.222 3.103,6.031l122.297,39.326c2.517,0.809 5.215,-0.579 6.019,-3.098l3.524,-11.033c0.805,-2.519 -0.586,-5.222 -3.103,-6.031l-122.296,-39.326c-2.518,-0.809 -5.215,0.579 -6.02,3.098l-3.524,11.033Z" style="fill:#9c3b13;"/><path d="M650.107,644.143c-0,-6.14 -4.985,-11.125 -11.125,-11.125l-44.62,-0c-6.14,-0 -11.125,4.985 -11.125,11.125l0,81.459c0,6.14 4.985,11.125 11.125,11.125l44.62,0c6.14,0 11.125,-4.985 11.125,-11.125l-0,-81.459Z" style="fill:#ffc3ad;"/><path d="M714.457,833.037c-27.56,22.258 -60.136,36.298 -94.992,36.298c-39.634,0 -76.229,-14.728 -105.89,-39.701" style="fill-rule:nonzero;"/><path d="M911.406,317.62c0,-52.21 -42.387,-94.598 -94.597,-94.598l-389.752,0c-52.21,0 -94.598,42.388 -94.598,94.598c0,52.209 42.388,94.597 94.598,94.597l389.752,-0c52.21,-0 94.597,-42.388 94.597,-94.597Z" style="fill:#575757;"/></g></svg>