<?xml version="1.0" encoding="UTF-8" standalone="no"?><!DOCTYPE svg PUBLIC "-//W3C//DTD SVG 1.1//EN" "http://www.w3.org/Graphics/SVG/1.1/DTD/svg11.dtd"><svg width="100%" height="100%" viewBox="0 0 1250 1250" version="1.1" xmlns="http://www.w3.org/2000/svg" xmlns:xlink="http://www.w3.org/1999/xlink" xml:space="preserve" xmlns:serif="http://www.serif.com/" style="fill-rule:evenodd;clip-rule:evenodd;stroke-linejoin:round;stroke-miterlimit:2;"><g id="_1-4"><g><clipPath id="_clip1"><path d="M622.92,1247.35c343.44,-0 624.434,-280.994 624.434,-624.434c0,-343.44 -280.994,-624.434 -624.434,-624.434c-343.44,-0 -624.441,280.994 -624.441,624.434c0,343.44 281.001,624.434 624.441,624.434Z"/></clipPath><g clip-path="url(#_clip1)"><rect x="522.799" y="887.184" width="204.782" height="444.807" style="fill:#f09d7e;"/><rect x="167.071" y="1141.39" width="936.658" height="395.474" style="fill:#fcdb62;"/></g></g><circle cx="235.078" cy="625.755" r="107.855" style="fill:#e39a7f;"/><circle cx="1010.76" cy="625.755" r="107.855" style="fill:#e39a7f;"/><circle cx="624.564" cy="652.293" r="410.709" style="fill:#ffb59c;"/><path d="M518.433,598.384c-0.02,20.727 -17.072,37.775 -37.798,37.791c-5.429,0.031 -10.796,-1.165 -15.699,-3.497c-9.346,-4.339 -16.508,-12.335 -19.796,-22.1c-1.409,-3.95 -2.12,-8.116 -2.1,-12.31c-0,-0.017 -0,-0.033 -0,-0.05c-0,-20.688 17.009,-37.717 37.696,-37.74c4.871,-0.008 9.696,0.941 14.2,2.795c11.343,4.576 19.779,14.395 22.592,26.299c0.599,2.899 0.902,5.852 0.905,8.812Z" style="fill-rule:nonzero;"/><path d="M786.031,598.384c-0.02,20.724 -17.067,37.771 -37.791,37.791c-5.429,0.032 -10.796,-1.164 -15.698,-3.497c-9.348,-4.336 -16.512,-12.333 -19.797,-22.1c-1.413,-3.949 -2.123,-8.115 -2.1,-12.31c-0,-0.019 -0,-0.038 -0,-0.058c-0,-20.683 17.006,-37.709 37.689,-37.732c4.871,-0.009 9.696,0.941 14.2,2.795c11.345,4.575 19.783,14.394 22.599,26.299c0.597,2.899 0.898,5.852 0.898,8.812Z" style="fill-rule:nonzero;"/><path d="M805.799,501.239l-90.896,-27.574c-11.478,-3.486 -18.057,-15.797 -14.577,-27.276c3.487,-11.482 15.801,-18.064 27.284,-14.584l90.889,27.581c9.192,2.786 15.521,11.317 15.521,20.921c-0,2.154 -0.318,4.295 -0.945,6.356c-2.788,9.191 -11.321,15.519 -20.925,15.519c-2.152,-0 -4.292,-0.318 -6.351,-0.943Z" style="fill:#332a1a;fill-rule:nonzero;"/><path d="M528.739,454.86c-2.666,-11.773 -14.389,-19.167 -26.162,-16.501l-92.642,20.98c-11.773,2.666 -19.166,14.389 -16.5,26.162c2.666,11.773 14.389,19.166 26.162,16.5l92.641,-20.979c11.773,-2.667 19.167,-14.389 16.501,-26.162Z" style="fill:#332a1a;"/><path d="M651.16,628.683c0,-6.899 -5.601,-12.5 -12.5,-12.5l-50.205,-0c-6.899,-0 -12.5,5.601 -12.5,12.5l0,91.246c0,6.899 5.601,12.5 12.5,12.5l50.205,0c6.899,0 12.5,-5.601 12.5,-12.5l0,-91.246Z" style="fill:#ffc3ad;"/><path d="M1032.9,648.188c0.116,-3.433 0.232,-6.973 0.232,-10.514c-0,-149.845 -107.333,-315.512 -239.858,-315.512c-65.625,0 -125.016,29.768 -168.454,78.13c-43.33,-48.362 -102.822,-78.13 -168.339,-78.13c-128.593,0 -236.157,162.792 -242.283,306.439c-1.036,-11.513 0.579,-37.074 0.579,-48.804c-0,-224.543 184.515,-396.959 411.426,-396.959c226.911,0 410.853,182.046 410.853,406.589c0.082,19.663 -1.308,39.305 -4.156,58.761Z" style="fill:#332a1a;fill-rule:nonzero;"/><path d="M963.631,387.693c-57.784,24.714 -163.647,54.814 -240.792,58.218c-160.316,7.096 -298.604,-42.867 -349.545,-118.028c-17.378,-87.247 37.654,-123.966 83.438,-141.2c93.742,-35.292 241.56,-19.71 324.194,22.708c78.34,40.289 149.57,103.655 182.705,178.302Z" style="fill:#332a1a;fill-rule:nonzero;"/><path d="M817.985,804.441c-34.909,68.789 -100.099,63.084 -174.508,63.084" style="fill-rule:nonzero;"/></g></svg>