<?xml version="1.0" encoding="UTF-8" standalone="no"?><!DOCTYPE svg PUBLIC "-//W3C//DTD SVG 1.1//EN" "http://www.w3.org/Graphics/SVG/1.1/DTD/svg11.dtd"><svg width="100%" height="100%" viewBox="0 0 1250 1250" version="1.1" xmlns="http://www.w3.org/2000/svg" xmlns:xlink="http://www.w3.org/1999/xlink" xml:space="preserve" xmlns:serif="http://www.serif.com/" style="fill-rule:evenodd;clip-rule:evenodd;stroke-linejoin:round;stroke-miterlimit:2;"><g id="_1"><g><clipPath id="_clip1"><path d="M618.768,1251.52c341.14,-0 620.253,-282.869 620.253,-628.601c-0,-345.731 -279.113,-628.607 -620.253,-628.607c-341.141,-0 -620.261,282.876 -620.261,628.607c0,345.732 279.12,628.601 620.261,628.601Z"/></clipPath><g clip-path="url(#_clip1)"><rect x="519.317" y="888.951" width="203.411" height="447.775" style="fill:#f09d7e;"/><rect x="165.97" y="1144.84" width="930.387" height="398.113" style="fill:#f07e7e;"/></g></g><ellipse cx="233.522" cy="625.77" rx="107.132" ry="108.574" style="fill:#e39a7f;"/><ellipse cx="1004.01" cy="625.77" rx="107.132" ry="108.574" style="fill:#e39a7f;"/><ellipse cx="620.4" cy="652.486" rx="407.959" ry="413.449" style="fill:#ffb59c;"/><path d="M514.98,598.217c-0.016,20.868 -16.955,38.034 -37.545,38.05c-5.392,0.026 -10.722,-1.177 -15.594,-3.521c-9.282,-4.368 -16.396,-12.417 -19.664,-22.247c-1.398,-3.977 -2.104,-8.17 -2.086,-12.391c0,-0.018 0,-0.035 0,-0.052c0,-20.826 16.895,-37.971 37.445,-37.999c4.838,-0.009 9.632,0.95 14.104,2.821c11.271,4.597 19.653,14.483 22.441,26.468c0.595,2.918 0.896,5.891 0.899,8.871Z" style="fill-rule:nonzero;"/><path d="M777.593,579.301l-64.186,0c-3.196,5.671 -4.877,12.09 -4.877,18.62c0,20.598 16.725,37.547 37.049,37.547c20.324,0 37.049,-16.949 37.049,-37.547c-0,-0.035 -0.001,-0.07 -0.001,-0.105c-0.019,-2.878 -0.349,-5.745 -0.985,-8.55c-0.87,-3.502 -2.234,-6.858 -4.049,-9.965Z" style="fill-rule:nonzero;"/><path d="M830.494,528.345c-0,-12.151 -9.866,-22.017 -22.018,-22.017l-93.766,-0c-12.152,-0 -22.018,9.866 -22.018,22.017c0,12.152 9.866,22.018 22.018,22.018l93.766,-0c12.152,-0 22.018,-9.866 22.018,-22.018Z" style="fill:#7a4100;"/><path d="M534.143,462.706c-2.648,-11.852 -14.408,-19.268 -26.244,-16.552l-91.507,21.002c-11.836,2.716 -19.295,14.544 -16.647,26.395c2.648,11.852 14.407,19.269 26.243,16.552l91.508,-21.002c11.836,-2.716 19.295,-14.543 16.647,-26.395Z" style="fill:#7a4100;"/><path d="M646.818,628.634c0,-6.899 -5.601,-12.5 -12.5,-12.5l-49.701,-0c-6.899,-0 -12.5,5.601 -12.5,12.5l0,92.022c0,6.899 5.601,12.5 12.5,12.5l49.701,0c6.899,0 12.5,-5.601 12.5,-12.5l0,-92.022Z" style="fill:#ffc3ad;"/><path d="M1026.01,648.36c0.116,-3.455 0.231,-7.02 0.231,-10.584c-0,-150.845 -106.615,-317.617 -238.252,-317.617c-65.186,0 -124.179,29.966 -167.327,78.652c-43.04,-48.686 -102.133,-78.652 -167.211,-78.652c-127.732,0 -234.577,163.878 -240.662,308.476c-1.028,-11.583 0.576,-37.314 0.576,-49.13c-0,-226.034 183.279,-399.607 408.671,-399.607c225.392,0 408.103,183.261 408.103,409.302c0.081,19.797 -1.299,39.572 -4.129,59.16Z" style="fill:#7a4100;fill-rule:nonzero;"/><path d="M794.804,832.59c-34.675,69.248 -99.429,126.367 -173.339,126.367c-77.737,0 -145.023,-51.244 -178.274,-126.367l351.613,-0Z" style="fill-rule:nonzero;"/></g></svg>