<?xml version="1.0" encoding="UTF-8" standalone="no"?><!DOCTYPE svg PUBLIC "-//W3C//DTD SVG 1.1//EN" "http://www.w3.org/Graphics/SVG/1.1/DTD/svg11.dtd"><svg width="100%" height="100%" viewBox="0 0 5209 5209" version="1.1" xmlns="http://www.w3.org/2000/svg" xmlns:xlink="http://www.w3.org/1999/xlink" xml:space="preserve" xmlns:serif="http://www.serif.com/" style="fill-rule:evenodd;clip-rule:evenodd;stroke-linejoin:round;stroke-miterlimit:2;"><g id="_1-3"><g><g><clipPath id="_clip1"><path d="M2612.91,5162.79c1402.47,-0 2549.94,-1147.47 2549.94,-2549.94c-0,-1402.48 -1147.47,-2549.97 -2549.94,-2549.97c-1402.48,0 -2550.06,1147.55 -2550.06,2549.97c-0,1402.47 1147.59,2549.94 2550.06,2549.94Z"/></clipPath><g clip-path="url(#_clip1)"><rect x="1833.34" y="1395.46" width="2273.26" height="3718.67" style="fill:#802e13;"/><path d="M3068.15,5502.33l-733.762,12.154l-0,-1816.41l733.762,-12.154l0,1816.41Z" style="fill:#f09d7e;fill-rule:nonzero;"/><rect x="631.2" y="4618.42" width="3824.94" height="1614.96" style="fill:#95a7f0;"/></g></g></g><circle cx="1382" cy="2616.15" r="392.946" style="fill:#e39a7f;"/><circle cx="3843.82" cy="2616.15" r="392.946" style="fill:#e39a7f;"/><path d="M4027.86,3597.61c-70.729,793.05 -1096.49,714.367 -1168.97,714.663l-478.667,-0c-105.65,4.375 -1092.85,30.604 -1168.96,-714.721c-41.4,-408.058 122.741,-663.713 122.741,-663.713l0,-881.491c0,-28.417 1.092,-56.45 2.954,-84.508c1.834,-31.7 5.088,-62.659 9.109,-93.617c4.733,-34.242 10.912,-67.746 18.216,-100.892c6.18,-27.704 13.1,-55.029 21.113,-81.967c8.012,-26.937 16.767,-54.641 26.612,-81.254c8.871,-24.75 18.567,-49.529 29.567,-73.57c10.913,-25.871 22.946,-51.009 36.046,-75.788c11.296,-22.558 23.654,-44.796 36.429,-66.646c15.671,-26.229 32.529,-51.716 49.558,-76.883c14.196,-20.046 28.771,-40.096 44.059,-59.404c21.854,-28.029 45.183,-55.355 69.221,-81.58c10.558,-11.295 21.141,-22.237 31.7,-33.15c6.562,-6.562 12.745,-12.741 19.308,-18.954c18.925,-18.566 38.617,-36.075 58.637,-53.55c18.567,-15.771 37.513,-31.066 56.83,-45.891c221.687,-168.98 492.429,-261.371 771.17,-263.167l10.2,0c708.159,5.471 1280.36,581.038 1280.36,1290.64l-0,881.55c-0,-0 159.2,255.541 122.77,663.891Z" style="fill:#ffb59c;fill-rule:nonzero;"/><path d="M1730.94,1362.4c188.121,-146.1 838.675,-127.354 1075.7,-137.2c74.187,-2.958 176.796,-3.492 210.117,-85.25c19.545,-47.991 8.608,-109.612 7.837,-160.266c-0.767,-50.65 -1.479,-101.155 -1.833,-151.78c-128.405,-42.845 -262.763,-65.191 -398.121,-66.204l-10.2,0c-278.742,1.804 -549.479,94.192 -771.171,263.167c-19.279,14.904 -38.221,30.2 -56.833,45.891c-20.017,17.476 -39.679,34.98 -58.634,53.55c-6.566,6.18 -12.745,12.388 -19.337,18.955c-10.558,10.912 -21.083,21.85 -31.642,33.145c-24.066,26.23 -47.308,53.55 -69.25,81.584c-15.287,19.308 -29.866,39.354 -44.058,59.375c-17.121,25.162 -33.888,50.65 -49.558,76.879c-12.746,21.854 -25.134,44.058 -36.43,66.65c-13.1,24.779 -25.104,49.912 -36.045,75.787c-10.942,24.038 -20.7,48.817 -29.571,73.567c-9.817,26.613 -18.921,53.933 -26.613,81.258c-7.687,27.321 -14.783,54.288 -21.141,81.967c-7.271,33.146 -13.484,66.646 -18.213,100.888c-4.021,30.958 -7.275,61.92 -9.108,93.616c-1.834,28.063 -2.959,56.184 -2.959,84.542l0,54.404c18.392,-57.658 78.096,-496.821 397.059,-744.525Z" style="fill:#802e13;fill-rule:nonzero;"/><path d="M3512.53,1362.4c-188.179,-146.042 -838.704,-127.354 -1075.7,-137.171c-74.188,-2.958 -176.825,-3.491 -210.121,-85.25c-19.546,-47.991 -8.604,-109.612 -7.833,-160.266c0.766,-50.65 1.479,-101.154 1.833,-151.779c128.4,-42.846 262.758,-65.192 398.121,-66.205l10.2,0c278.742,1.805 549.475,94.196 771.171,263.167c19.279,14.904 38.221,30.2 56.829,45.892c20.021,17.475 39.683,34.979 58.637,53.55c6.563,6.179 12.746,12.391 19.338,18.954c10.558,10.912 21.083,21.85 31.641,33.146c24.067,26.229 47.309,53.55 69.25,81.583c15.288,19.308 29.863,39.358 44.059,59.375c17.121,25.162 33.887,50.654 49.558,76.879c12.742,21.854 25.104,44.058 36.429,66.65c13.1,24.779 25.104,49.913 36.046,75.788c10.938,24.037 20.696,48.816 29.567,73.566c9.816,26.613 18.925,53.934 26.612,81.259c7.688,27.32 14.788,54.287 21.142,81.966c7.275,33.146 13.483,66.646 18.217,100.888c4.02,30.962 7.275,61.921 9.108,93.617c1.833,28.062 2.954,56.183 2.954,84.541l0,54.404c-18.392,-57.687 -78.092,-496.85 -397.054,-744.554Z" style="fill:#802e13;fill-rule:nonzero;"/><path d="M2247.19,2536.19c-0.063,84.649 -69.7,154.287 -154.35,154.354c-22.171,0.104 -44.079,-4.775 -64.109,-14.284c-38.158,-17.721 -67.408,-50.371 -80.841,-90.245c-5.746,-16.134 -8.65,-33.142 -8.575,-50.267l-0,-0.208c-0,-84.484 69.454,-154.03 153.937,-154.146c19.892,-0.034 39.6,3.854 57.988,11.446c46.337,18.645 80.795,58.75 92.254,107.366c2.446,11.838 3.683,23.896 3.696,35.984Z" style="fill-rule:nonzero;"/><path d="M2048.49,2420.93c-0,0 -115.321,27.233 -137.942,-68.367c-0,0.001 -27.321,95.805 57.008,122.18c106.009,33.15 80.934,-53.813 80.934,-53.813Z" style="fill-rule:nonzero;"/><path d="M2015.84,2469.48c-0,0 -115.321,27.263 -137.942,-68.362c0,-0 -27.321,95.804 57.013,122.179c106.125,33.179 80.929,-53.817 80.929,-53.817Z" style="fill-rule:nonzero;"/><path d="M2930.1,2536.19c0.066,84.641 69.683,154.27 154.325,154.354c22.167,0.112 44.079,-4.771 64.104,-14.284c38.163,-17.721 67.408,-50.371 80.842,-90.245c5.75,-16.134 8.65,-33.142 8.575,-50.267l-0,-0.238c-0,-84.479 -69.459,-154.016 -153.938,-154.116c-19.883,-0.038 -39.579,3.85 -57.954,11.445c-46.333,18.663 -80.792,58.755 -92.287,107.367c-2.438,11.838 -3.663,23.896 -3.667,35.983Z" style="fill-rule:nonzero;"/><path d="M3128.8,2420.93c0,0 115.317,27.233 137.938,-68.367c-0,0.001 27.325,95.805 -57.009,122.18c-106.066,33.15 -80.929,-53.813 -80.929,-53.813Z" style="fill-rule:nonzero;"/><path d="M3161.42,2469.48c-0,0 115.175,27.263 137.941,-68.362c0,-0 27.321,95.804 -57.008,122.179c-106.037,33.179 -80.933,-53.817 -80.933,-53.817Z" style="fill-rule:nonzero;"/><path d="M2324.77,2174.72c2.433,-10.746 -4.317,-21.446 -15.063,-23.88l-512.604,-116.087c-10.746,-2.433 -21.45,4.317 -23.883,15.063l-10.288,45.441c-2.437,10.746 4.313,21.446 15.063,23.879l512.6,116.084c10.75,2.437 21.45,-4.313 23.883,-15.063l10.292,-45.437Z" style="fill:#332a1a;"/><path d="M2860.91,1997.02c-3.362,10.495 2.425,21.745 12.921,25.108l500.45,160.388c10.492,3.362 21.742,-2.425 25.104,-12.921l14.2,-44.309c3.367,-10.491 -2.425,-21.741 -12.916,-25.104l-500.45,-160.391c-10.496,-3.363 -21.746,2.429 -25.109,12.92l-14.2,44.309Z" style="fill:#332a1a;"/><path d="M2715.78,2627.61c0,-25.587 -20.771,-46.354 -46.354,-46.354l-181.283,0c-25.584,0 -46.354,20.767 -46.354,46.354l-0.001,330.813c0.001,25.583 20.771,46.354 46.355,46.354l181.283,0c25.583,0 46.354,-20.771 46.354,-46.354l0,-330.813Z" style="fill:#ffc3ad;"/><circle cx="1662.64" cy="1186.05" r="526.158" style="fill:#802e13;"/><circle cx="2714.24" cy="1049.68" r="738.729" style="fill:#802e13;"/><circle cx="3679.86" cy="1186.05" r="526.158" style="fill:#802e13;"/><rect x="2276.49" y="3581.45" width="653.606" height="91.979"/></g></svg>